<svg xmlns="http://www.w3.org/2000/svg" width="42" height="57" viewBox="0 0 42 57">
    <g fill="none" fill-rule="nonzero">
        <path fill="#0087BA" d="M40.553 14.998v35.557a5.945 5.945 0 0 1-5.945 5.945H6.723a5.945 5.945 0 0 1-5.945-5.945V14.998a5.945 5.945 0 0 1 5.945-5.946h27.885a5.945 5.945 0 0 1 5.945 5.946z"/>
        <path fill="#0297CF" d="M40.553 14.998v35.557a5.945 5.945 0 0 1-5.945 5.945h-26.4a5.945 5.945 0 0 1-5.944-5.945V14.998a5.945 5.945 0 0 1 5.945-5.946h26.399a5.945 5.945 0 0 1 5.945 5.946z"/>
        <path fill="#F4F4F4" d="M31.808 15.128h3.514v34.626H6.009V15.128h3.514"/>
        <path fill="#5FC0CA" d="M29.367 7.413h-3.518a5.41 5.41 0 0 0 .187-2.074A5.416 5.416 0 0 0 21.003.51a5.4 5.4 0 0 0-5.52 6.903h-3.519a2.44 2.44 0 0 0-2.44 2.441v5.575a2.44 2.44 0 0 0 2.44 2.44h17.403a2.44 2.44 0 0 0 2.44-2.44V9.854a2.44 2.44 0 0 0-2.44-2.44zm-8.701.616a2.129 2.129 0 1 1 0-4.258 2.129 2.129 0 0 1 0 4.258z"/>
        <path fill="#E94F4E" d="M15.937 24.964h1.844c.386 0 .676-.086.869-.258.193-.171.29-.45.29-.836 0-.372-.097-.642-.29-.81-.193-.168-.483-.252-.869-.252h-1.844v2.156zM14.253 21.5h4.129c.343 0 .652.055.927.166.275.111.511.263.708.456.196.193.347.416.45.67.104.254.156.527.156.82 0 .45-.095.84-.284 1.17-.19.328-.5.578-.928.75v.021a1.299 1.299 0 0 1 .847.681c.086.161.148.338.188.531.04.193.066.386.08.58l.022.428c.007.164.02.332.037.504.018.172.047.334.086.488.04.154.098.284.177.391h-1.684a2.968 2.968 0 0 1-.171-.868 12.964 12.964 0 0 0-.097-.965c-.057-.4-.178-.694-.364-.88-.186-.186-.49-.278-.912-.278h-1.683v2.991h-1.684V21.5zm9.061 4.74l-1.823-2.628h1.737l.976 1.448.965-1.448h1.684l-1.823 2.595 2.048 2.95h-1.737l-1.158-1.749-1.158 1.748H21.32l1.994-2.916z"/>
        <g fill="#6C7380">
            <path d="M30.008 36.098H11.323a.857.857 0 0 1 0-1.715h18.685a.857.857 0 1 1 0 1.715zM30.008 44.87H11.323a.857.857 0 0 1 0-1.714h18.685a.857.857 0 1 1 0 1.715zM30.008 40.484H11.323a.857.857 0 0 1 0-1.714h18.685a.857.857 0 1 1 0 1.714z"/>
        </g>
    </g>
</svg>
